<mxfile host="Electron" modified="2023-04-18T03:07:40.885Z" agent="Mozilla/5.0 (Windows NT 10.0; Win64; x64) AppleWebKit/537.36 (KHTML, like Gecko) draw.io/21.1.2 Chrome/106.0.5249.199 Electron/21.4.3 Safari/537.36" etag="LDTH4NfPPsYwAlQtzkUR" version="21.1.2" type="device">
  <diagram name="Page-1" id="lH0raCrpAk4Ikr6hAGnO">
    <mxGraphModel dx="435" dy="533" grid="1" gridSize="10" guides="1" tooltips="1" connect="1" arrows="1" fold="1" page="1" pageScale="1" pageWidth="850" pageHeight="1100" math="0" shadow="0">
      <root>
        <mxCell id="0" />
        <mxCell id="1" parent="0" />
        <mxCell id="sr0IAIGd1PWn5QzDEMZJ-6" style="edgeStyle=orthogonalEdgeStyle;rounded=0;orthogonalLoop=1;jettySize=auto;html=1;" edge="1" parent="1" source="sr0IAIGd1PWn5QzDEMZJ-2" target="sr0IAIGd1PWn5QzDEMZJ-5">
          <mxGeometry relative="1" as="geometry" />
        </mxCell>
        <mxCell id="sr0IAIGd1PWn5QzDEMZJ-2" value="Begin" style="ellipse;whiteSpace=wrap;html=1;aspect=fixed;" vertex="1" parent="1">
          <mxGeometry x="370" y="30" width="80" height="80" as="geometry" />
        </mxCell>
        <mxCell id="sr0IAIGd1PWn5QzDEMZJ-3" value="end" style="ellipse;whiteSpace=wrap;html=1;aspect=fixed;" vertex="1" parent="1">
          <mxGeometry x="377.5" y="1420" width="80" height="80" as="geometry" />
        </mxCell>
        <mxCell id="sr0IAIGd1PWn5QzDEMZJ-10" value="F" style="edgeStyle=orthogonalEdgeStyle;rounded=0;orthogonalLoop=1;jettySize=auto;html=1;entryX=0.5;entryY=0;entryDx=0;entryDy=0;" edge="1" parent="1" source="sr0IAIGd1PWn5QzDEMZJ-4" target="sr0IAIGd1PWn5QzDEMZJ-8">
          <mxGeometry relative="1" as="geometry">
            <Array as="points">
              <mxPoint x="410" y="390" />
              <mxPoint x="410" y="390" />
            </Array>
          </mxGeometry>
        </mxCell>
        <mxCell id="sr0IAIGd1PWn5QzDEMZJ-13" style="edgeStyle=orthogonalEdgeStyle;rounded=0;orthogonalLoop=1;jettySize=auto;html=1;entryX=0;entryY=0.5;entryDx=0;entryDy=0;" edge="1" parent="1" source="sr0IAIGd1PWn5QzDEMZJ-4" target="sr0IAIGd1PWn5QzDEMZJ-31">
          <mxGeometry relative="1" as="geometry">
            <mxPoint x="580" y="330" as="targetPoint" />
          </mxGeometry>
        </mxCell>
        <mxCell id="sr0IAIGd1PWn5QzDEMZJ-16" value="T" style="edgeLabel;html=1;align=center;verticalAlign=middle;resizable=0;points=[];" vertex="1" connectable="0" parent="sr0IAIGd1PWn5QzDEMZJ-13">
          <mxGeometry x="-0.2308" y="-2" relative="1" as="geometry">
            <mxPoint as="offset" />
          </mxGeometry>
        </mxCell>
        <mxCell id="sr0IAIGd1PWn5QzDEMZJ-4" value="(text&amp;gt;=65)&lt;br&gt;&amp;amp;&amp;amp;&lt;br&gt;(text&amp;lt;=90)" style="rhombus;whiteSpace=wrap;html=1;" vertex="1" parent="1">
          <mxGeometry x="350" y="290" width="120" height="80" as="geometry" />
        </mxCell>
        <mxCell id="sr0IAIGd1PWn5QzDEMZJ-7" style="edgeStyle=orthogonalEdgeStyle;rounded=0;orthogonalLoop=1;jettySize=auto;html=1;entryX=0.5;entryY=0;entryDx=0;entryDy=0;" edge="1" parent="1" source="sr0IAIGd1PWn5QzDEMZJ-5" target="sr0IAIGd1PWn5QzDEMZJ-4">
          <mxGeometry relative="1" as="geometry" />
        </mxCell>
        <mxCell id="sr0IAIGd1PWn5QzDEMZJ-5" value="read text" style="shape=parallelogram;perimeter=parallelogramPerimeter;whiteSpace=wrap;html=1;fixedSize=1;" vertex="1" parent="1">
          <mxGeometry x="350" y="170" width="120" height="60" as="geometry" />
        </mxCell>
        <mxCell id="sr0IAIGd1PWn5QzDEMZJ-11" value="F" style="edgeStyle=orthogonalEdgeStyle;rounded=0;orthogonalLoop=1;jettySize=auto;html=1;" edge="1" parent="1" source="sr0IAIGd1PWn5QzDEMZJ-8" target="sr0IAIGd1PWn5QzDEMZJ-9">
          <mxGeometry relative="1" as="geometry" />
        </mxCell>
        <mxCell id="sr0IAIGd1PWn5QzDEMZJ-14" style="edgeStyle=orthogonalEdgeStyle;rounded=0;orthogonalLoop=1;jettySize=auto;html=1;entryX=0;entryY=0.5;entryDx=0;entryDy=0;" edge="1" parent="1" source="sr0IAIGd1PWn5QzDEMZJ-8" target="sr0IAIGd1PWn5QzDEMZJ-33">
          <mxGeometry relative="1" as="geometry">
            <mxPoint x="580" y="460" as="targetPoint" />
            <Array as="points" />
          </mxGeometry>
        </mxCell>
        <mxCell id="sr0IAIGd1PWn5QzDEMZJ-17" value="T" style="edgeLabel;html=1;align=center;verticalAlign=middle;resizable=0;points=[];" vertex="1" connectable="0" parent="sr0IAIGd1PWn5QzDEMZJ-14">
          <mxGeometry x="-0.1538" y="-1" relative="1" as="geometry">
            <mxPoint as="offset" />
          </mxGeometry>
        </mxCell>
        <mxCell id="sr0IAIGd1PWn5QzDEMZJ-8" value="(text&amp;gt;=97)&lt;br&gt;&amp;amp;&amp;amp;&lt;br&gt;(text&amp;lt;=122)" style="rhombus;whiteSpace=wrap;html=1;" vertex="1" parent="1">
          <mxGeometry x="355" y="420" width="110" height="80" as="geometry" />
        </mxCell>
        <mxCell id="sr0IAIGd1PWn5QzDEMZJ-12" value="F" style="edgeStyle=orthogonalEdgeStyle;rounded=0;orthogonalLoop=1;jettySize=auto;html=1;entryX=0.5;entryY=0;entryDx=0;entryDy=0;" edge="1" parent="1" source="sr0IAIGd1PWn5QzDEMZJ-9" target="sr0IAIGd1PWn5QzDEMZJ-26">
          <mxGeometry relative="1" as="geometry">
            <mxPoint x="410" y="740" as="targetPoint" />
          </mxGeometry>
        </mxCell>
        <mxCell id="sr0IAIGd1PWn5QzDEMZJ-15" style="edgeStyle=orthogonalEdgeStyle;rounded=0;orthogonalLoop=1;jettySize=auto;html=1;entryX=0;entryY=0.5;entryDx=0;entryDy=0;" edge="1" parent="1" source="sr0IAIGd1PWn5QzDEMZJ-9" target="sr0IAIGd1PWn5QzDEMZJ-34">
          <mxGeometry relative="1" as="geometry">
            <mxPoint x="590" y="590" as="targetPoint" />
            <Array as="points" />
          </mxGeometry>
        </mxCell>
        <mxCell id="sr0IAIGd1PWn5QzDEMZJ-18" value="T" style="edgeLabel;html=1;align=center;verticalAlign=middle;resizable=0;points=[];" vertex="1" connectable="0" parent="sr0IAIGd1PWn5QzDEMZJ-15">
          <mxGeometry x="-0.1857" relative="1" as="geometry">
            <mxPoint as="offset" />
          </mxGeometry>
        </mxCell>
        <mxCell id="sr0IAIGd1PWn5QzDEMZJ-9" value="" style="rhombus;whiteSpace=wrap;html=1;" vertex="1" parent="1">
          <mxGeometry x="350" y="550" width="120" height="80" as="geometry" />
        </mxCell>
        <mxCell id="sr0IAIGd1PWn5QzDEMZJ-20" style="edgeStyle=orthogonalEdgeStyle;rounded=0;orthogonalLoop=1;jettySize=auto;html=1;entryX=0.5;entryY=0;entryDx=0;entryDy=0;" edge="1" parent="1" source="sr0IAIGd1PWn5QzDEMZJ-19" target="sr0IAIGd1PWn5QzDEMZJ-3">
          <mxGeometry relative="1" as="geometry" />
        </mxCell>
        <mxCell id="sr0IAIGd1PWn5QzDEMZJ-19" value="" style="shape=parallelogram;perimeter=parallelogramPerimeter;whiteSpace=wrap;html=1;fixedSize=1;" vertex="1" parent="1">
          <mxGeometry x="357.5" y="1280" width="120" height="60" as="geometry" />
        </mxCell>
        <mxCell id="sr0IAIGd1PWn5QzDEMZJ-21" value="Xếp học lực&lt;br&gt;- &#39;A&#39;: &quot;Xuat sac&quot;&lt;br&gt;- &#39;B&#39;: &quot;Gioi&quot;&lt;br&gt;- &#39;C&#39;: &quot;Kha&quot;&lt;br&gt;- &#39;D&#39;: &quot;Trung binh&quot;&lt;br&gt;- &#39;E&#39;: &quot;Yeu&quot;&lt;br&gt;- con lai: &quot;Hay trieu bay&quot;" style="whiteSpace=wrap;html=1;aspect=fixed;" vertex="1" parent="1">
          <mxGeometry x="30" y="80" width="200" height="200" as="geometry" />
        </mxCell>
        <mxCell id="sr0IAIGd1PWn5QzDEMZJ-23" value="F" style="edgeStyle=orthogonalEdgeStyle;rounded=0;orthogonalLoop=1;jettySize=auto;html=1;entryX=0.5;entryY=0;entryDx=0;entryDy=0;" edge="1" parent="1" source="sr0IAIGd1PWn5QzDEMZJ-26" target="sr0IAIGd1PWn5QzDEMZJ-27">
          <mxGeometry relative="1" as="geometry">
            <mxPoint x="415" y="870" as="targetPoint" />
          </mxGeometry>
        </mxCell>
        <mxCell id="sr0IAIGd1PWn5QzDEMZJ-24" style="edgeStyle=orthogonalEdgeStyle;rounded=0;orthogonalLoop=1;jettySize=auto;html=1;entryX=0;entryY=0.5;entryDx=0;entryDy=0;" edge="1" parent="1" source="sr0IAIGd1PWn5QzDEMZJ-26" target="sr0IAIGd1PWn5QzDEMZJ-35">
          <mxGeometry relative="1" as="geometry">
            <mxPoint x="600" y="750" as="targetPoint" />
            <Array as="points" />
          </mxGeometry>
        </mxCell>
        <mxCell id="sr0IAIGd1PWn5QzDEMZJ-25" value="T" style="edgeLabel;html=1;align=center;verticalAlign=middle;resizable=0;points=[];" vertex="1" connectable="0" parent="sr0IAIGd1PWn5QzDEMZJ-24">
          <mxGeometry x="-0.1857" relative="1" as="geometry">
            <mxPoint as="offset" />
          </mxGeometry>
        </mxCell>
        <mxCell id="sr0IAIGd1PWn5QzDEMZJ-26" value="diemChu == &#39;D&#39;" style="rhombus;whiteSpace=wrap;html=1;" vertex="1" parent="1">
          <mxGeometry x="355" y="710" width="120" height="80" as="geometry" />
        </mxCell>
        <mxCell id="sr0IAIGd1PWn5QzDEMZJ-28" value="T" style="edgeStyle=orthogonalEdgeStyle;rounded=0;orthogonalLoop=1;jettySize=auto;html=1;entryX=0;entryY=0.5;entryDx=0;entryDy=0;" edge="1" parent="1" source="sr0IAIGd1PWn5QzDEMZJ-27" target="sr0IAIGd1PWn5QzDEMZJ-36">
          <mxGeometry relative="1" as="geometry">
            <mxPoint x="610" y="920" as="targetPoint" />
          </mxGeometry>
        </mxCell>
        <mxCell id="sr0IAIGd1PWn5QzDEMZJ-30" value="F" style="edgeStyle=orthogonalEdgeStyle;rounded=0;orthogonalLoop=1;jettySize=auto;html=1;entryX=0.5;entryY=0;entryDx=0;entryDy=0;" edge="1" parent="1" source="sr0IAIGd1PWn5QzDEMZJ-27" target="sr0IAIGd1PWn5QzDEMZJ-39">
          <mxGeometry relative="1" as="geometry">
            <mxPoint x="416.25" y="1030" as="targetPoint" />
          </mxGeometry>
        </mxCell>
        <mxCell id="sr0IAIGd1PWn5QzDEMZJ-27" value="diemChu == &#39;E&#39;" style="rhombus;whiteSpace=wrap;html=1;" vertex="1" parent="1">
          <mxGeometry x="355" y="880" width="122.5" height="80" as="geometry" />
        </mxCell>
        <mxCell id="sr0IAIGd1PWn5QzDEMZJ-40" style="edgeStyle=orthogonalEdgeStyle;rounded=0;orthogonalLoop=1;jettySize=auto;html=1;entryX=1;entryY=0.5;entryDx=0;entryDy=0;" edge="1" parent="1" source="sr0IAIGd1PWn5QzDEMZJ-31" target="sr0IAIGd1PWn5QzDEMZJ-37">
          <mxGeometry relative="1" as="geometry">
            <mxPoint x="760" y="1210" as="targetPoint" />
            <Array as="points">
              <mxPoint x="760" y="330" />
              <mxPoint x="760" y="1205" />
            </Array>
          </mxGeometry>
        </mxCell>
        <mxCell id="sr0IAIGd1PWn5QzDEMZJ-31" value="text=text+32" style="rounded=0;whiteSpace=wrap;html=1;" vertex="1" parent="1">
          <mxGeometry x="570" y="300" width="120" height="60" as="geometry" />
        </mxCell>
        <mxCell id="sr0IAIGd1PWn5QzDEMZJ-41" style="edgeStyle=orthogonalEdgeStyle;rounded=0;orthogonalLoop=1;jettySize=auto;html=1;entryX=1;entryY=0;entryDx=0;entryDy=0;" edge="1" parent="1" source="sr0IAIGd1PWn5QzDEMZJ-33" target="sr0IAIGd1PWn5QzDEMZJ-37">
          <mxGeometry relative="1" as="geometry">
            <mxPoint x="730" y="1190" as="targetPoint" />
            <Array as="points">
              <mxPoint x="740" y="460" />
              <mxPoint x="740" y="1194" />
            </Array>
          </mxGeometry>
        </mxCell>
        <mxCell id="sr0IAIGd1PWn5QzDEMZJ-33" value="text=text-32" style="rounded=0;whiteSpace=wrap;html=1;" vertex="1" parent="1">
          <mxGeometry x="570" y="430" width="120" height="60" as="geometry" />
        </mxCell>
        <mxCell id="sr0IAIGd1PWn5QzDEMZJ-42" style="edgeStyle=orthogonalEdgeStyle;rounded=0;orthogonalLoop=1;jettySize=auto;html=1;entryX=1;entryY=1;entryDx=0;entryDy=0;" edge="1" parent="1" source="sr0IAIGd1PWn5QzDEMZJ-34" target="sr0IAIGd1PWn5QzDEMZJ-37">
          <mxGeometry relative="1" as="geometry">
            <mxPoint x="720" y="1180" as="targetPoint" />
            <Array as="points">
              <mxPoint x="720" y="590" />
              <mxPoint x="720" y="1216" />
            </Array>
          </mxGeometry>
        </mxCell>
        <mxCell id="sr0IAIGd1PWn5QzDEMZJ-34" value="" style="rounded=0;whiteSpace=wrap;html=1;" vertex="1" parent="1">
          <mxGeometry x="570" y="560" width="120" height="60" as="geometry" />
        </mxCell>
        <mxCell id="sr0IAIGd1PWn5QzDEMZJ-43" style="edgeStyle=orthogonalEdgeStyle;rounded=0;orthogonalLoop=1;jettySize=auto;html=1;entryX=0;entryY=1;entryDx=0;entryDy=0;" edge="1" parent="1" source="sr0IAIGd1PWn5QzDEMZJ-35" target="sr0IAIGd1PWn5QzDEMZJ-37">
          <mxGeometry relative="1" as="geometry">
            <mxPoint x="360" y="1210" as="targetPoint" />
            <Array as="points">
              <mxPoint x="700" y="750" />
              <mxPoint x="700" y="1230" />
              <mxPoint x="370" y="1230" />
              <mxPoint x="370" y="1216" />
            </Array>
          </mxGeometry>
        </mxCell>
        <mxCell id="sr0IAIGd1PWn5QzDEMZJ-35" value="" style="rounded=0;whiteSpace=wrap;html=1;" vertex="1" parent="1">
          <mxGeometry x="570" y="720" width="120" height="60" as="geometry" />
        </mxCell>
        <mxCell id="sr0IAIGd1PWn5QzDEMZJ-44" style="edgeStyle=orthogonalEdgeStyle;rounded=0;orthogonalLoop=1;jettySize=auto;html=1;entryX=0;entryY=0.5;entryDx=0;entryDy=0;" edge="1" parent="1" source="sr0IAIGd1PWn5QzDEMZJ-36" target="sr0IAIGd1PWn5QzDEMZJ-37">
          <mxGeometry relative="1" as="geometry">
            <mxPoint x="340" y="1200" as="targetPoint" />
            <Array as="points">
              <mxPoint x="630" y="1250" />
              <mxPoint x="340" y="1250" />
              <mxPoint x="340" y="1205" />
            </Array>
          </mxGeometry>
        </mxCell>
        <mxCell id="sr0IAIGd1PWn5QzDEMZJ-36" value="" style="rounded=0;whiteSpace=wrap;html=1;" vertex="1" parent="1">
          <mxGeometry x="570" y="890" width="120" height="60" as="geometry" />
        </mxCell>
        <mxCell id="sr0IAIGd1PWn5QzDEMZJ-38" style="edgeStyle=orthogonalEdgeStyle;rounded=0;orthogonalLoop=1;jettySize=auto;html=1;entryX=0.5;entryY=0;entryDx=0;entryDy=0;" edge="1" parent="1" source="sr0IAIGd1PWn5QzDEMZJ-37" target="sr0IAIGd1PWn5QzDEMZJ-19">
          <mxGeometry relative="1" as="geometry" />
        </mxCell>
        <mxCell id="sr0IAIGd1PWn5QzDEMZJ-37" value="" style="ellipse;whiteSpace=wrap;html=1;aspect=fixed;" vertex="1" parent="1">
          <mxGeometry x="402.5" y="1190" width="30" height="30" as="geometry" />
        </mxCell>
        <mxCell id="sr0IAIGd1PWn5QzDEMZJ-45" style="edgeStyle=orthogonalEdgeStyle;rounded=0;orthogonalLoop=1;jettySize=auto;html=1;entryX=0.5;entryY=0;entryDx=0;entryDy=0;" edge="1" parent="1" source="sr0IAIGd1PWn5QzDEMZJ-39" target="sr0IAIGd1PWn5QzDEMZJ-37">
          <mxGeometry relative="1" as="geometry" />
        </mxCell>
        <mxCell id="sr0IAIGd1PWn5QzDEMZJ-39" value="" style="rounded=0;whiteSpace=wrap;html=1;" vertex="1" parent="1">
          <mxGeometry x="355" y="1060" width="120" height="60" as="geometry" />
        </mxCell>
      </root>
    </mxGraphModel>
  </diagram>
</mxfile>
